<?xml version="1.0" standalone="no"?>
<!DOCTYPE svg PUBLIC "-//W3C//DTD SVG 20010904//EN"
 "http://www.w3.org/TR/2001/REC-SVG-20010904/DTD/svg10.dtd">
<svg version="1.0" xmlns="http://www.w3.org/2000/svg"
 width="500.000000pt" height="500.000000pt" viewBox="0 0 500.000000 500.000000"
 preserveAspectRatio="xMidYMid meet">

<g transform="translate(0.000000,500.000000) scale(0.100000,-0.100000)"
fill="#000000" stroke="none">
<path d="M3733 4216 c-40 -40 -44 -49 -42 -84 3 -33 -3 -46 -29 -76 -38 -44
-53 -78 -75 -171 -47 -201 -29 -288 108 -519 71 -121 139 -218 233 -335 169
-210 196 -273 197 -456 0 -137 -10 -162 -90 -233 -99 -87 -228 -83 -421 14
-91 45 -93 48 -184 164 -161 210 -369 389 -562 486 -155 78 -353 124 -534 124
-182 0 -424 -54 -609 -136 -58 -26 -113 -41 -200 -54 -206 -32 -340 -77 -488
-165 -361 -213 -577 -613 -577 -1067 0 -339 90 -597 275 -783 87 -89 177 -143
281 -170 76 -20 251 -20 329 0 142 36 287 139 379 269 43 60 116 196 116 216
0 5 -18 33 -41 62 -50 66 -122 213 -144 293 -25 95 -31 293 -11 399 16 84 64
252 70 244 2 -1 0 -50 -5 -108 -9 -120 3 -311 26 -419 87 -413 401 -629 920
-634 l151 -2 109 57 c169 87 236 103 435 102 137 0 179 -4 247 -22 45 -12 84
-22 88 -22 3 0 -7 19 -24 43 -36 51 -127 140 -241 234 -47 39 -94 81 -105 93
-19 22 -19 23 -1 17 51 -19 202 -37 312 -37 240 0 441 61 646 197 118 77 193
188 240 348 21 72 23 101 23 285 0 199 -1 207 -29 290 -59 176 -119 264 -336
495 -271 289 -392 506 -350 627 14 41 17 43 72 54 72 14 88 27 88 73 0 48 -8
57 -57 70 l-41 11 -4 116 c-3 108 -5 117 -27 135 -38 31 -69 24 -118 -25z
m-935 -1836 c64 -39 89 -118 58 -178 -64 -124 -240 -91 -254 47 -3 39 0 57 17
84 39 63 118 84 179 47z"/>
</g>
</svg>
